Sprint_06300001_forces_filt999Hz.mot
version=1
nRows=24
nColumns=19
inDegrees=yes
endheader
time	R_ground_force_vx	R_ground_force_vy	R_ground_force_vz	R_ground_force_px	R_ground_force_py	R_ground_force_pz	R_ground_torque_x	R_ground_torque_y	R_ground_torque_z	L_ground_force_vx	L_ground_force_vy	L_ground_force_vz	L_ground_force_px	L_ground_force_py	L_ground_force_pz	L_ground_torque_x	L_ground_torque_y	L_ground_torque_z	
2.692000	  0.000000	  0.000000	  0.000000	  1.381291	  0.000000	 -0.238904	  0.000000	  0.000000	  0.000000	  0.000000	  0.000000	  0.000000	  0.104525	  0.000000	 -0.299453	  0.000000	  0.000000	  0.000000
2.692500	  0.000000	  0.000000	  0.000000	  1.382217	  0.000000	 -0.239031	  0.000000	  0.000000	  0.000000	  0.000000	  0.000000	  0.000000	  0.103669	  0.000000	 -0.299148	  0.000000	  0.000000	  0.000000
2.693000	  0.000000	  0.000000	  0.000000	  1.383143	  0.000000	 -0.239159	  0.000000	  0.000000	  0.000000	  0.000000	  0.000000	  0.000000	  0.102812	  0.000000	 -0.298843	  0.000000	  0.000000	  0.000000
2.693500	  0.000000	  0.000000	  0.000000	  1.384069	  0.000000	 -0.239287	  0.000000	  0.000000	  0.000000	  0.000000	  0.000000	  0.000000	  0.101956	  0.000000	 -0.298538	  0.000000	  0.000000	  0.000000
2.694000	  0.000000	  0.000000	  0.000000	  1.384995	  0.000000	 -0.239414	  0.000000	  0.000000	  0.000000	  0.000000	  0.000000	  0.000000	  0.101099	  0.000000	 -0.298233	  0.000000	  0.000000	  0.000000
2.694500	  0.000000	  0.000000	  0.000000	  1.385922	  0.000000	 -0.239542	  0.000000	  0.000000	  0.000000	  0.000000	  0.000000	  0.000000	  0.100243	  0.000000	 -0.297928	  0.000000	  0.000000	  0.000000
2.695000	  0.000000	  0.000000	  0.000000	  1.386848	  0.000000	 -0.239669	  0.000000	  0.000000	  0.000000	  0.000000	  0.000000	  0.000000	  0.099386	  0.000000	 -0.297622	  0.000000	  0.000000	  0.000000
2.695500	  0.000000	  0.000000	  0.000000	  1.387439	  0.000000	 -0.239782	  0.000000	  0.000000	  0.000000	  0.000000	  0.000000	  0.000000	  0.098750	  0.000000	 -0.297486	  0.000000	  0.000000	  0.000000
2.696000	  0.000000	  0.000000	  0.000000	  1.388030	  0.000000	 -0.239894	  0.000000	  0.000000	  0.000000	  0.000000	  0.000000	  0.000000	  0.098114	  0.000000	 -0.297350	  0.000000	  0.000000	  0.000000
2.696500	  0.000000	  0.000000	  0.000000	  1.388622	  0.000000	 -0.240006	  0.000000	  0.000000	  0.000000	  0.000000	  0.000000	  0.000000	  0.097478	  0.000000	 -0.297213	  0.000000	  0.000000	  0.000000
2.697000	  0.000000	  0.000000	  0.000000	  1.389213	  0.000000	 -0.240119	  0.000000	  0.000000	  0.000000	  0.000000	  0.000000	  0.000000	  0.096842	  0.000000	 -0.297077	  0.000000	  0.000000	  0.000000
2.697500	  0.000000	  0.000000	  0.000000	  1.389804	  0.000000	 -0.240231	  0.000000	  0.000000	  0.000000	  0.000000	  0.000000	  0.000000	  0.096205	  0.000000	 -0.296940	  0.000000	  0.000000	  0.000000
2.698000	  0.000000	  0.000000	  0.000000	  1.390396	  0.000000	 -0.240343	  0.000000	  0.000000	  0.000000	  0.000000	  0.000000	  0.000000	  0.095569	  0.000000	 -0.296804	  0.000000	  0.000000	  0.000000
2.698500	  0.000000	  0.000000	  0.000000	  1.390987	  0.000000	 -0.240456	  0.000000	  0.000000	  0.000000	  0.000000	  0.000000	  0.000000	  0.094933	  0.000000	 -0.296668	  0.000000	  0.000000	  0.000000
2.699000	  0.000000	  0.000000	  0.000000	  1.391579	  0.000000	 -0.240568	  0.000000	  0.000000	  0.000000	  0.000000	  0.000000	  0.000000	  0.094297	  0.000000	 -0.296531	  0.000000	  0.000000	  0.000000
2.699500	  0.000000	  0.000000	  0.000000	  1.392170	  0.000000	 -0.240681	  0.000000	  0.000000	  0.000000	  0.000000	  0.000000	  0.000000	  0.093661	  0.000000	 -0.296395	  0.000000	  0.000000	  0.000000
2.700000	  0.000000	  0.000000	  0.000000	  1.392761	  0.000000	 -0.240793	  0.000000	  0.000000	  0.000000	  0.000000	  0.000000	  0.000000	  0.093025	  0.000000	 -0.296258	  0.000000	  0.000000	  0.000000
2.700500	  0.000000	  0.000000	  0.000000	  1.393047	  0.000000	 -0.240906	  0.000000	  0.000000	  0.000000	  0.000000	  0.000000	  0.000000	  0.092640	  0.000000	 -0.296220	  0.000000	  0.000000	  0.000000
2.701000	  0.000000	  0.000000	  0.000000	  1.393334	  0.000000	 -0.241019	  0.000000	  0.000000	  0.000000	  0.000000	  0.000000	  0.000000	  0.092255	  0.000000	 -0.296183	  0.000000	  0.000000	  0.000000
2.701500	  0.000000	  0.000000	  0.000000	  1.393620	  0.000000	 -0.241132	  0.000000	  0.000000	  0.000000	  0.000000	  0.000000	  0.000000	  0.091870	  0.000000	 -0.296145	  0.000000	  0.000000	  0.000000
2.702000	  0.000000	  0.000000	  0.000000	  1.393906	  0.000000	 -0.241244	  0.000000	  0.000000	  0.000000	  0.000000	  0.000000	  0.000000	  0.091485	  0.000000	 -0.296107	  0.000000	  0.000000	  0.000000
2.702500	  0.000000	  0.000000	  0.000000	  1.394192	  0.000000	 -0.241357	  0.000000	  0.000000	  0.000000	  0.000000	  0.000000	  0.000000	  0.091099	  0.000000	 -0.296069	  0.000000	  0.000000	  0.000000
2.703000	  0.000000	  0.000000	  0.000000	  1.394478	  0.000000	 -0.241470	  0.000000	  0.000000	  0.000000	  0.000000	  0.000000	  0.000000	  0.090714	  0.000000	 -0.296031	  0.000000	  0.000000	  0.000000
2.703500	  0.000000	  0.000000	  0.000000	  1.394764	  0.000000	 -0.241583	  0.000000	  0.000000	  0.000000	  0.000000	  0.000000	  0.000000	  0.090329	  0.000000	 -0.295993	  0.000000	  0.000000	  0.000000
